<svg width="260" height="330" viewBox="0 0 260 330" fill="none" xmlns="http://www.w3.org/2000/svg">
<path d="M99.6787 90.0195L99.9971 90.3721L100.472 90.3486L161 87.2998V238.197L28.6348 259.968L1 248.906V183.192L34.8115 140.683L75.583 128.479L77.6201 127.869L75.8506 126.689L41.625 103.857L41.4756 103.757L41.2998 103.716L1.7627 94.416L12.9697 80.2998L57.2871 87.209L82.8018 101.176L84.0264 99.6309L50.8213 62.5703L66.5439 53.2764L99.6787 90.0195Z" fill="#FF8787" stroke="black" stroke-width="2"/>
<path d="M234.479 117.868L258.932 169.888L226.762 277.679L187.198 322.78L144.151 328.96L96.8906 301.65L96.793 301.594L96.6855 301.561L43.7344 285.168L27.1191 262.307L43.9893 215.109L77.5674 180.753L154.098 117.969L155.542 116.784L153.755 116.239L110.292 102.979L98.5488 88.4443L187.413 86.0088L234.479 117.868Z" fill="#FB6E6E" stroke="black" stroke-width="2"/>
<path d="M113.613 77.9033L113.55 77.7344L107.353 61.1709L107.29 61.0029L107.173 60.8672L83.4521 33.3945L75.2617 11.5586L97.2188 1.38672L105.461 27.9023L105.546 28.1748L105.762 28.3623L126.736 46.5029L127.317 47.0049L127.953 46.5732L154.648 28.4326L155.086 28.1348V13.4336L168.341 10.6924V24.2676H200.728L205.807 32.3203L199.401 41.8594L195.024 40.8711L191.379 38.2324L191.116 38.042H179.698L179.573 38.0752L169.086 40.8359L168.917 40.8799L168.772 40.9795L140.171 60.6982L139.738 60.9961V104.664L140.204 104.958L157.141 115.65L93.8818 166.995L92.1689 138.146L98.7363 116.024L113.389 98.04L113.613 97.7646V77.9033Z" fill="#E67B7B" stroke="black" stroke-width="2"/>
<circle cx="111" cy="202" r="10" fill="#4F1010"/>
<circle cx="201" cy="196" r="10" fill="#4F1010"/>
<path d="M133.358 237.826L132.5 240.5L132.5 243L132.5 245.5L133.358 247.326L134.5 250L136.5 252L138.5 254L141.358 255.826L146.5 258L152 259L157.5 259.5L163.5 259.5L168 259L172.142 258.348L175 257.5L178.358 256L180 254.5L181.5 252.5L183.358 249.326L184 247L184.5 244L184 241L183.358 237.826" stroke="#4F1010" stroke-width="5"/>
</svg>
